%TF.GenerationSoftware,KiCad,Pcbnew,(6.0.1)*%
%TF.CreationDate,2022-04-30T00:42:49-04:00*%
%TF.ProjectId,TRS_Breakout,5452535f-4272-4656-916b-6f75742e6b69,rev?*%
%TF.SameCoordinates,Original*%
%TF.FileFunction,Soldermask,Bot*%
%TF.FilePolarity,Negative*%
%FSLAX46Y46*%
G04 Gerber Fmt 4.6, Leading zero omitted, Abs format (unit mm)*
G04 Created by KiCad (PCBNEW (6.0.1)) date 2022-04-30 00:42:49*
%MOMM*%
%LPD*%
G01*
G04 APERTURE LIST*
%ADD10R,1.700000X1.700000*%
%ADD11O,1.700000X1.700000*%
%ADD12C,3.400000*%
G04 APERTURE END LIST*
%TO.C,G\u002A\u002A\u002A*%
G36*
X132803141Y-103456092D02*
G01*
X132858589Y-103456491D01*
X132896323Y-103457787D01*
X132919958Y-103460504D01*
X132933107Y-103465167D01*
X132939384Y-103472303D01*
X132942402Y-103482436D01*
X132944124Y-103493827D01*
X132948548Y-103527334D01*
X132955312Y-103580627D01*
X132964180Y-103651792D01*
X132974918Y-103738913D01*
X132987292Y-103840078D01*
X133001066Y-103953371D01*
X133016005Y-104076879D01*
X133031875Y-104208686D01*
X133048441Y-104346880D01*
X133062038Y-104460352D01*
X133078088Y-104593772D01*
X133093265Y-104719368D01*
X133107332Y-104835208D01*
X133120052Y-104939359D01*
X133131187Y-105029891D01*
X133140503Y-105104871D01*
X133147760Y-105162368D01*
X133152723Y-105200450D01*
X133155155Y-105217185D01*
X133161623Y-105249418D01*
X132979012Y-105249418D01*
X132965202Y-105249413D01*
X132899572Y-105249111D01*
X132853406Y-105248067D01*
X132823320Y-105245903D01*
X132805932Y-105242240D01*
X132797860Y-105236701D01*
X132795721Y-105228906D01*
X132795593Y-105226937D01*
X132793319Y-105205281D01*
X132788527Y-105164238D01*
X132781595Y-105106921D01*
X132772905Y-105036445D01*
X132762836Y-104955926D01*
X132751767Y-104868477D01*
X132708491Y-104528560D01*
X132324620Y-104525469D01*
X131940748Y-104522379D01*
X131940824Y-104554773D01*
X131941000Y-104558960D01*
X131943303Y-104585322D01*
X131947915Y-104629754D01*
X131954379Y-104688394D01*
X131962237Y-104757379D01*
X131971032Y-104832847D01*
X131980306Y-104910933D01*
X131989603Y-104987777D01*
X131998464Y-105059515D01*
X132006433Y-105122283D01*
X132013052Y-105172220D01*
X132017864Y-105205463D01*
X132024857Y-105249418D01*
X131842147Y-105249418D01*
X131805797Y-105249346D01*
X131744895Y-105248619D01*
X131702887Y-105246881D01*
X131676695Y-105243853D01*
X131663239Y-105239253D01*
X131659437Y-105232803D01*
X131659437Y-105232738D01*
X131657996Y-105218190D01*
X131653945Y-105182260D01*
X131647502Y-105126797D01*
X131638889Y-105053649D01*
X131628325Y-104964664D01*
X131616030Y-104861690D01*
X131602225Y-104746577D01*
X131587129Y-104621172D01*
X131570963Y-104487323D01*
X131553946Y-104346880D01*
X131553447Y-104342768D01*
X131536463Y-104202662D01*
X131520335Y-104069330D01*
X131505282Y-103944606D01*
X131491523Y-103830322D01*
X131479278Y-103728312D01*
X131468767Y-103640408D01*
X131460210Y-103568443D01*
X131453826Y-103514250D01*
X131449834Y-103479663D01*
X131448454Y-103466513D01*
X131449504Y-103465179D01*
X131467229Y-103461519D01*
X131504648Y-103459133D01*
X131558899Y-103458148D01*
X131627121Y-103458688D01*
X131805788Y-103461924D01*
X131849186Y-103813562D01*
X131853305Y-103846956D01*
X131863874Y-103932787D01*
X131873353Y-104009991D01*
X131881386Y-104075642D01*
X131887613Y-104126811D01*
X131891678Y-104160570D01*
X131893223Y-104173991D01*
X131893294Y-104174138D01*
X131906146Y-104176068D01*
X131938849Y-104177782D01*
X131988072Y-104179265D01*
X132050484Y-104180506D01*
X132122756Y-104181492D01*
X132201559Y-104182212D01*
X132283561Y-104182651D01*
X132365434Y-104182799D01*
X132443847Y-104182643D01*
X132515470Y-104182171D01*
X132576974Y-104181369D01*
X132625028Y-104180226D01*
X132656302Y-104178729D01*
X132667467Y-104176867D01*
X132667368Y-104175633D01*
X132665323Y-104157223D01*
X132660901Y-104119278D01*
X132654452Y-104064747D01*
X132646325Y-103996581D01*
X132636872Y-103917730D01*
X132626442Y-103831144D01*
X132623828Y-103809457D01*
X132613567Y-103723604D01*
X132604378Y-103645594D01*
X132596614Y-103578514D01*
X132590630Y-103525448D01*
X132586780Y-103489482D01*
X132585418Y-103473700D01*
X132586388Y-103469460D01*
X132594035Y-103463762D01*
X132612056Y-103459902D01*
X132643715Y-103457551D01*
X132692279Y-103456380D01*
X132761014Y-103456063D01*
X132803141Y-103456092D01*
G37*
G36*
X135272737Y-102139881D02*
G01*
X135281287Y-102211466D01*
X135287666Y-102265257D01*
X135291654Y-102299427D01*
X135293032Y-102312151D01*
X135292806Y-102312420D01*
X135278453Y-102314165D01*
X135243568Y-102315557D01*
X135190705Y-102316573D01*
X135122419Y-102317188D01*
X135041262Y-102317378D01*
X134949790Y-102317118D01*
X134850554Y-102316384D01*
X134824331Y-102316131D01*
X134715043Y-102315006D01*
X134626040Y-102313861D01*
X134554722Y-102312538D01*
X134498486Y-102310882D01*
X134454731Y-102308735D01*
X134420857Y-102305941D01*
X134394262Y-102302343D01*
X134372345Y-102297785D01*
X134352505Y-102292109D01*
X134332141Y-102285160D01*
X134194333Y-102225545D01*
X134066601Y-102146928D01*
X133955440Y-102052222D01*
X133861608Y-101942319D01*
X133785859Y-101818111D01*
X133728951Y-101680489D01*
X133691641Y-101530346D01*
X133684715Y-101479281D01*
X133679067Y-101393724D01*
X133678693Y-101334513D01*
X134033626Y-101334513D01*
X134039256Y-101441758D01*
X134061765Y-101567698D01*
X134101276Y-101678043D01*
X134157605Y-101772501D01*
X134230567Y-101850779D01*
X134319980Y-101912586D01*
X134425658Y-101957628D01*
X134432118Y-101959658D01*
X134467907Y-101969060D01*
X134508279Y-101976080D01*
X134557949Y-101981231D01*
X134621630Y-101985029D01*
X134704038Y-101987987D01*
X134759089Y-101989236D01*
X134817802Y-101989684D01*
X134864413Y-101989027D01*
X134895147Y-101987329D01*
X134906230Y-101984652D01*
X134905887Y-101979836D01*
X134903212Y-101954246D01*
X134898169Y-101909795D01*
X134891104Y-101849294D01*
X134882357Y-101775551D01*
X134872274Y-101691376D01*
X134861197Y-101599578D01*
X134849470Y-101502965D01*
X134837435Y-101404347D01*
X134825437Y-101306533D01*
X134813817Y-101212332D01*
X134802920Y-101124554D01*
X134793089Y-101046007D01*
X134784667Y-100979500D01*
X134777997Y-100927843D01*
X134773423Y-100893844D01*
X134771287Y-100880313D01*
X134767269Y-100877111D01*
X134744069Y-100871882D01*
X134704547Y-100868174D01*
X134653409Y-100866003D01*
X134595360Y-100865389D01*
X134535103Y-100866348D01*
X134477345Y-100868900D01*
X134426789Y-100873062D01*
X134388141Y-100878851D01*
X134377286Y-100881273D01*
X134278414Y-100915431D01*
X134193180Y-100967944D01*
X134123049Y-101037685D01*
X134069485Y-101123530D01*
X134061681Y-101140036D01*
X134048349Y-101171362D01*
X134039991Y-101199922D01*
X134035494Y-101232266D01*
X134033743Y-101274946D01*
X134033626Y-101334513D01*
X133678693Y-101334513D01*
X133678484Y-101301489D01*
X133682754Y-101210011D01*
X133691666Y-101126724D01*
X133705010Y-101059063D01*
X133743275Y-100948928D01*
X133803204Y-100837761D01*
X133879688Y-100742311D01*
X133971702Y-100663614D01*
X134078220Y-100602705D01*
X134198219Y-100560621D01*
X134221597Y-100555005D01*
X134248618Y-100549761D01*
X134278645Y-100545667D01*
X134314596Y-100542583D01*
X134359390Y-100540371D01*
X134415949Y-100538892D01*
X134487190Y-100538007D01*
X134576034Y-100537578D01*
X134685401Y-100537466D01*
X134794983Y-100537673D01*
X134889004Y-100538370D01*
X134962536Y-100539610D01*
X135017093Y-100541445D01*
X135054189Y-100543927D01*
X135075336Y-100547106D01*
X135082049Y-100551036D01*
X135082050Y-100551105D01*
X135083503Y-100565267D01*
X135087564Y-100600811D01*
X135094012Y-100655897D01*
X135102628Y-100728685D01*
X135113191Y-100817336D01*
X135125484Y-100920010D01*
X135139284Y-101034867D01*
X135154374Y-101160069D01*
X135170533Y-101293774D01*
X135187541Y-101434144D01*
X135188119Y-101438910D01*
X135205092Y-101578928D01*
X135221209Y-101712104D01*
X135236251Y-101836613D01*
X135250000Y-101950629D01*
X135254093Y-101984652D01*
X135262235Y-102052327D01*
X135272737Y-102139881D01*
G37*
G36*
X136875671Y-101650016D02*
G01*
X136891034Y-101776595D01*
X136905262Y-101893402D01*
X136918117Y-101998508D01*
X136929363Y-102089984D01*
X136938764Y-102165901D01*
X136946083Y-102224330D01*
X136951083Y-102263341D01*
X136953528Y-102281006D01*
X136960062Y-102319100D01*
X136608988Y-102319100D01*
X136575784Y-102037789D01*
X136542579Y-101756479D01*
X136303547Y-101756479D01*
X136002169Y-102318923D01*
X135799057Y-102319011D01*
X135595945Y-102319100D01*
X135926289Y-101675768D01*
X135876320Y-101641325D01*
X135869104Y-101636213D01*
X135816718Y-101592625D01*
X135762383Y-101538270D01*
X135713360Y-101480904D01*
X135676908Y-101428283D01*
X135674490Y-101424019D01*
X135654956Y-101384369D01*
X135633339Y-101333657D01*
X135613889Y-101281767D01*
X135603359Y-101249866D01*
X135592127Y-101208003D01*
X135585468Y-101166569D01*
X135582352Y-101119149D01*
X135940404Y-101119149D01*
X135954892Y-101200691D01*
X135960056Y-101216456D01*
X135992261Y-101278773D01*
X136038499Y-101334294D01*
X136093400Y-101377501D01*
X136151598Y-101402875D01*
X136182802Y-101408007D01*
X136231984Y-101412449D01*
X136291189Y-101415456D01*
X136353541Y-101416562D01*
X136501131Y-101416562D01*
X136493801Y-101360886D01*
X136490670Y-101336221D01*
X136485016Y-101290324D01*
X136477742Y-101230412D01*
X136469448Y-101161441D01*
X136460737Y-101088366D01*
X136435002Y-100871522D01*
X136265471Y-100871522D01*
X136243093Y-100871534D01*
X136182386Y-100871921D01*
X136138908Y-100873369D01*
X136107883Y-100876557D01*
X136084539Y-100882165D01*
X136064099Y-100890871D01*
X136041789Y-100903356D01*
X136008067Y-100928267D01*
X135967783Y-100980232D01*
X135944965Y-101044761D01*
X135940404Y-101119149D01*
X135582352Y-101119149D01*
X135582251Y-101117618D01*
X135581346Y-101053202D01*
X135581452Y-101020251D01*
X135583083Y-100964539D01*
X135587320Y-100922543D01*
X135595007Y-100887684D01*
X135606988Y-100853380D01*
X135615292Y-100833640D01*
X135663103Y-100749984D01*
X135726788Y-100680231D01*
X135808356Y-100622536D01*
X135909814Y-100575051D01*
X135926661Y-100568662D01*
X135947688Y-100561381D01*
X135968866Y-100555646D01*
X135993108Y-100551232D01*
X136023324Y-100547915D01*
X136062425Y-100545471D01*
X136113323Y-100543677D01*
X136178929Y-100542308D01*
X136262153Y-100541140D01*
X136365908Y-100539949D01*
X136741367Y-100535779D01*
X136844181Y-101389345D01*
X136847464Y-101416562D01*
X136859409Y-101515595D01*
X136875671Y-101650016D01*
G37*
G36*
X132755296Y-101872577D02*
G01*
X132754257Y-101922077D01*
X132751057Y-101958255D01*
X132744512Y-101987678D01*
X132733437Y-102016910D01*
X132716646Y-102052518D01*
X132697486Y-102087885D01*
X132633794Y-102172892D01*
X132553414Y-102244182D01*
X132459519Y-102299269D01*
X132355282Y-102335668D01*
X132336455Y-102339738D01*
X132258871Y-102349628D01*
X132172288Y-102352419D01*
X132087120Y-102348083D01*
X132013781Y-102336592D01*
X131986148Y-102329335D01*
X131882441Y-102289001D01*
X131789025Y-102232116D01*
X131778513Y-102224419D01*
X131754530Y-102208304D01*
X131741672Y-102201887D01*
X131735285Y-102207662D01*
X131719997Y-102228939D01*
X131700462Y-102260493D01*
X131666234Y-102319100D01*
X131261299Y-102319100D01*
X131339107Y-102193096D01*
X131366601Y-102148575D01*
X131407194Y-102082849D01*
X131446726Y-102018846D01*
X131479570Y-101965679D01*
X131489144Y-101949880D01*
X131891967Y-101949880D01*
X131931009Y-101982511D01*
X131943508Y-101991829D01*
X131984476Y-102015045D01*
X132027855Y-102032327D01*
X132037669Y-102035156D01*
X132095640Y-102046675D01*
X132150458Y-102045892D01*
X132213696Y-102032841D01*
X132216318Y-102032119D01*
X132280431Y-102004169D01*
X132336161Y-101961166D01*
X132376132Y-101908744D01*
X132388983Y-101874537D01*
X132397129Y-101816655D01*
X132394100Y-101755284D01*
X132379723Y-101700426D01*
X132368504Y-101678223D01*
X132336610Y-101634108D01*
X132295580Y-101591894D01*
X132250733Y-101556120D01*
X132207384Y-101531327D01*
X132170850Y-101522053D01*
X132168525Y-101523087D01*
X132154134Y-101538592D01*
X132130403Y-101570488D01*
X132099307Y-101615919D01*
X132062821Y-101672031D01*
X132022919Y-101735966D01*
X131891967Y-101949880D01*
X131489144Y-101949880D01*
X131497595Y-101935933D01*
X131520609Y-101895946D01*
X131536376Y-101865943D01*
X131542225Y-101850819D01*
X131542029Y-101849759D01*
X131534946Y-101832575D01*
X131518676Y-101797873D01*
X131494576Y-101748411D01*
X131464003Y-101686948D01*
X131428315Y-101616244D01*
X131388869Y-101539058D01*
X131235513Y-101240743D01*
X131549848Y-101240743D01*
X131635145Y-101405595D01*
X131653789Y-101441386D01*
X131680698Y-101492104D01*
X131702580Y-101532181D01*
X131717557Y-101558205D01*
X131723754Y-101566763D01*
X131725584Y-101564287D01*
X131737992Y-101545188D01*
X131759618Y-101510717D01*
X131788363Y-101464315D01*
X131822128Y-101409424D01*
X131858813Y-101349486D01*
X131896319Y-101287945D01*
X131932547Y-101228241D01*
X131965397Y-101173817D01*
X131992769Y-101128114D01*
X132012565Y-101094576D01*
X132022685Y-101076645D01*
X132030954Y-101059729D01*
X132056543Y-100987255D01*
X132061115Y-100922940D01*
X132044547Y-100864703D01*
X132006713Y-100810465D01*
X131980674Y-100785655D01*
X131950920Y-100770307D01*
X131909729Y-100763217D01*
X131877204Y-100761994D01*
X131836456Y-100768458D01*
X131796482Y-100786609D01*
X131752418Y-100818863D01*
X131699396Y-100867635D01*
X131628003Y-100937477D01*
X131525050Y-100818582D01*
X131422097Y-100699688D01*
X131490952Y-100633229D01*
X131494472Y-100629852D01*
X131585057Y-100557180D01*
X131682139Y-100506482D01*
X131788049Y-100476826D01*
X131905116Y-100467278D01*
X131957151Y-100469382D01*
X132066746Y-100488702D01*
X132164660Y-100527621D01*
X132249692Y-100585404D01*
X132320643Y-100661322D01*
X132376310Y-100754640D01*
X132403481Y-100825316D01*
X132418620Y-100906820D01*
X132415683Y-100990871D01*
X132394473Y-101081350D01*
X132354796Y-101182136D01*
X132348551Y-101195802D01*
X132330820Y-101234477D01*
X132317924Y-101262429D01*
X132312307Y-101274353D01*
X132315644Y-101277644D01*
X132335037Y-101287597D01*
X132366310Y-101300792D01*
X132380286Y-101306492D01*
X132482040Y-101361110D01*
X132574181Y-101433419D01*
X132652341Y-101519445D01*
X132712150Y-101615215D01*
X132726167Y-101643911D01*
X132740146Y-101675973D01*
X132748757Y-101704715D01*
X132753300Y-101736826D01*
X132755074Y-101778997D01*
X132755267Y-101816655D01*
X132755376Y-101837920D01*
X132755296Y-101872577D01*
G37*
G36*
X130130396Y-103804771D02*
G01*
X130165813Y-103863807D01*
X130215807Y-103946974D01*
X130262617Y-104024653D01*
X130304472Y-104093916D01*
X130339604Y-104151839D01*
X130366243Y-104195494D01*
X130382621Y-104221955D01*
X130425828Y-104290431D01*
X130460486Y-104198513D01*
X130461649Y-104195425D01*
X130475693Y-104157932D01*
X130496278Y-104102729D01*
X130521984Y-104033642D01*
X130551386Y-103954496D01*
X130583064Y-103869117D01*
X130615594Y-103781329D01*
X130736045Y-103456063D01*
X130945734Y-103456063D01*
X130989345Y-103456203D01*
X131063268Y-103457407D01*
X131115027Y-103459888D01*
X131145464Y-103463698D01*
X131155423Y-103468888D01*
X131153500Y-103475179D01*
X131143700Y-103501405D01*
X131126312Y-103545990D01*
X131102139Y-103606936D01*
X131071979Y-103682245D01*
X131036634Y-103769922D01*
X130996905Y-103867969D01*
X130953592Y-103974389D01*
X130907496Y-104087185D01*
X130659570Y-104692658D01*
X130686322Y-104921222D01*
X130686508Y-104922816D01*
X130695200Y-104997067D01*
X130703333Y-105066526D01*
X130710366Y-105126571D01*
X130715757Y-105172578D01*
X130718965Y-105199925D01*
X130724857Y-105250063D01*
X130550878Y-105246810D01*
X130376899Y-105243558D01*
X130344027Y-104971086D01*
X130311155Y-104698615D01*
X129912114Y-104094094D01*
X129904235Y-104082156D01*
X129833841Y-103975379D01*
X129767373Y-103874343D01*
X129705957Y-103780774D01*
X129650721Y-103696398D01*
X129602789Y-103622940D01*
X129563289Y-103562127D01*
X129533347Y-103515685D01*
X129514090Y-103485340D01*
X129506645Y-103472819D01*
X129506385Y-103472054D01*
X129508035Y-103466191D01*
X129518845Y-103461920D01*
X129541671Y-103459006D01*
X129579367Y-103457215D01*
X129634790Y-103456312D01*
X129710797Y-103456063D01*
X129921378Y-103456063D01*
X130130396Y-103804771D01*
G37*
G36*
X138467391Y-103395725D02*
G01*
X138486538Y-103418097D01*
X138518516Y-103455872D01*
X138562132Y-103507632D01*
X138616194Y-103571956D01*
X138679510Y-103647425D01*
X138750889Y-103732619D01*
X138829139Y-103826119D01*
X138913068Y-103926505D01*
X139001484Y-104032357D01*
X139075493Y-104120806D01*
X139160519Y-104221915D01*
X139240253Y-104316191D01*
X139313487Y-104402232D01*
X139379013Y-104478635D01*
X139435621Y-104543999D01*
X139482103Y-104596923D01*
X139517251Y-104636004D01*
X139539855Y-104659840D01*
X139548707Y-104667030D01*
X139548859Y-104666854D01*
X139557042Y-104653874D01*
X139575819Y-104622483D01*
X139604154Y-104574456D01*
X139641011Y-104511567D01*
X139685356Y-104435590D01*
X139736152Y-104348300D01*
X139792364Y-104251470D01*
X139852955Y-104146876D01*
X139916891Y-104036291D01*
X139921678Y-104028003D01*
X139985374Y-103917839D01*
X140045624Y-103813825D01*
X140101398Y-103717730D01*
X140151661Y-103631324D01*
X140195381Y-103556379D01*
X140231526Y-103494663D01*
X140259064Y-103447948D01*
X140276961Y-103418004D01*
X140284185Y-103406600D01*
X140284625Y-103407010D01*
X140287997Y-103422683D01*
X140293834Y-103459443D01*
X140301906Y-103515546D01*
X140311986Y-103589246D01*
X140323843Y-103678798D01*
X140337250Y-103782457D01*
X140351976Y-103898477D01*
X140367794Y-104025113D01*
X140384474Y-104160620D01*
X140401787Y-104303253D01*
X140405666Y-104335407D01*
X140422867Y-104477614D01*
X140439313Y-104612930D01*
X140454778Y-104739534D01*
X140469037Y-104855606D01*
X140481863Y-104959324D01*
X140493031Y-105048870D01*
X140502314Y-105122421D01*
X140509488Y-105178158D01*
X140514325Y-105214260D01*
X140516601Y-105228906D01*
X140516761Y-105229497D01*
X140516970Y-105237327D01*
X140510570Y-105242796D01*
X140494194Y-105246320D01*
X140464477Y-105248320D01*
X140418052Y-105249213D01*
X140351552Y-105249418D01*
X140324483Y-105249307D01*
X140267787Y-105248280D01*
X140222197Y-105246350D01*
X140191824Y-105243729D01*
X140180780Y-105240627D01*
X140179444Y-105225972D01*
X140175611Y-105191719D01*
X140169691Y-105141243D01*
X140162090Y-105077837D01*
X140153218Y-105004791D01*
X140143482Y-104925397D01*
X140133291Y-104842947D01*
X140123054Y-104760731D01*
X140113179Y-104682041D01*
X140104073Y-104610168D01*
X140096146Y-104548403D01*
X140089805Y-104500037D01*
X140085460Y-104468363D01*
X140083518Y-104456670D01*
X140083175Y-104456892D01*
X140074651Y-104469483D01*
X140055791Y-104499706D01*
X140027904Y-104545397D01*
X139992297Y-104604390D01*
X139950279Y-104674521D01*
X139903156Y-104753625D01*
X139852237Y-104839536D01*
X139842836Y-104855428D01*
X139792339Y-104940478D01*
X139745735Y-105018463D01*
X139704356Y-105087192D01*
X139669532Y-105144475D01*
X139642593Y-105188120D01*
X139624870Y-105215936D01*
X139617694Y-105225732D01*
X139613227Y-105221454D01*
X139595285Y-105201144D01*
X139565128Y-105165783D01*
X139524288Y-105117203D01*
X139474298Y-105057240D01*
X139416692Y-104987727D01*
X139353002Y-104910498D01*
X139284761Y-104827388D01*
X139238137Y-104770541D01*
X139172216Y-104690364D01*
X139111623Y-104616902D01*
X139057941Y-104552060D01*
X139012756Y-104497746D01*
X138977649Y-104455867D01*
X138954206Y-104428329D01*
X138944008Y-104417041D01*
X138942867Y-104416119D01*
X138933795Y-104414038D01*
X138934243Y-104431757D01*
X138936412Y-104447433D01*
X138940987Y-104483172D01*
X138947489Y-104535216D01*
X138955519Y-104600265D01*
X138964678Y-104675023D01*
X138974568Y-104756192D01*
X138984788Y-104840474D01*
X138994941Y-104924572D01*
X139004628Y-105005189D01*
X139013449Y-105079026D01*
X139021006Y-105142785D01*
X139026899Y-105193171D01*
X139030730Y-105226884D01*
X139032099Y-105240627D01*
X139029662Y-105242099D01*
X139009169Y-105244987D01*
X138971209Y-105247306D01*
X138919868Y-105248846D01*
X138859230Y-105249402D01*
X138686341Y-105249386D01*
X138573448Y-104320491D01*
X138566687Y-104264839D01*
X138549417Y-104122436D01*
X138533103Y-103987574D01*
X138517954Y-103862000D01*
X138504179Y-103747463D01*
X138491988Y-103645709D01*
X138481588Y-103558488D01*
X138473190Y-103487545D01*
X138467002Y-103434630D01*
X138463235Y-103401490D01*
X138462096Y-103389872D01*
X138467391Y-103395725D01*
G37*
G36*
X136927749Y-103494157D02*
G01*
X136929873Y-103509011D01*
X136934693Y-103545975D01*
X136941721Y-103601583D01*
X136950647Y-103673324D01*
X136961160Y-103758689D01*
X136972951Y-103855169D01*
X136985707Y-103960252D01*
X136999121Y-104071430D01*
X137010529Y-104165281D01*
X137023770Y-104271742D01*
X137036321Y-104370090D01*
X137047844Y-104457796D01*
X137058000Y-104532332D01*
X137066449Y-104591169D01*
X137072853Y-104631779D01*
X137076873Y-104651633D01*
X137080216Y-104661351D01*
X137108432Y-104717878D01*
X137149580Y-104775617D01*
X137197484Y-104825656D01*
X137213768Y-104839297D01*
X137290938Y-104888738D01*
X137372503Y-104919175D01*
X137455190Y-104930809D01*
X137535726Y-104923836D01*
X137610840Y-104898455D01*
X137677258Y-104854866D01*
X137731708Y-104793265D01*
X137740461Y-104780090D01*
X137752782Y-104759965D01*
X137762658Y-104739687D01*
X137770049Y-104717153D01*
X137774917Y-104690263D01*
X137777224Y-104656915D01*
X137776931Y-104615009D01*
X137774000Y-104562443D01*
X137768393Y-104497116D01*
X137760071Y-104416927D01*
X137748996Y-104319776D01*
X137735129Y-104203559D01*
X137718433Y-104066178D01*
X137717110Y-104055318D01*
X137703403Y-103942405D01*
X137690631Y-103836413D01*
X137679069Y-103739678D01*
X137668992Y-103654533D01*
X137660675Y-103583316D01*
X137654393Y-103528360D01*
X137650420Y-103492002D01*
X137649031Y-103476576D01*
X137649035Y-103476066D01*
X137651169Y-103468283D01*
X137659576Y-103462814D01*
X137677690Y-103459259D01*
X137708943Y-103457216D01*
X137756770Y-103456285D01*
X137824604Y-103456063D01*
X137866787Y-103456092D01*
X137922216Y-103456491D01*
X137959933Y-103457787D01*
X137983550Y-103460504D01*
X137996679Y-103465167D01*
X138002932Y-103472303D01*
X138005921Y-103482436D01*
X138009903Y-103505456D01*
X138016329Y-103550530D01*
X138024520Y-103613182D01*
X138034147Y-103690494D01*
X138044883Y-103779549D01*
X138056401Y-103877429D01*
X138068374Y-103981215D01*
X138080473Y-104087990D01*
X138092371Y-104194836D01*
X138103742Y-104298835D01*
X138114256Y-104397070D01*
X138123588Y-104486621D01*
X138131408Y-104564572D01*
X138137391Y-104628005D01*
X138141208Y-104674001D01*
X138142532Y-104699642D01*
X138140963Y-104753708D01*
X138131884Y-104823997D01*
X138112424Y-104889714D01*
X138079984Y-104961758D01*
X138035052Y-105032681D01*
X137964996Y-105107838D01*
X137879779Y-105172145D01*
X137783544Y-105222552D01*
X137680435Y-105256006D01*
X137628245Y-105263985D01*
X137556997Y-105268238D01*
X137478277Y-105268072D01*
X137399750Y-105263726D01*
X137329078Y-105255435D01*
X137273927Y-105243437D01*
X137273049Y-105243167D01*
X137145675Y-105192968D01*
X137030321Y-105125498D01*
X136929023Y-105042709D01*
X136843820Y-104946554D01*
X136776749Y-104838987D01*
X136729849Y-104721961D01*
X136728058Y-104714328D01*
X136722497Y-104682746D01*
X136714690Y-104632050D01*
X136704995Y-104565039D01*
X136693773Y-104484512D01*
X136681381Y-104393267D01*
X136668180Y-104294102D01*
X136654530Y-104189814D01*
X136640788Y-104083203D01*
X136627314Y-103977066D01*
X136614469Y-103874202D01*
X136602610Y-103777408D01*
X136592098Y-103689483D01*
X136583291Y-103613226D01*
X136576549Y-103551433D01*
X136572231Y-103506904D01*
X136570696Y-103482436D01*
X136570880Y-103475499D01*
X136573522Y-103467367D01*
X136582112Y-103461893D01*
X136600150Y-103458553D01*
X136631135Y-103456819D01*
X136678565Y-103456164D01*
X136745939Y-103456063D01*
X136921227Y-103456063D01*
X136927749Y-103494157D01*
G37*
G36*
X140303407Y-100575560D02*
G01*
X140303937Y-100578920D01*
X140307580Y-100605465D01*
X140313549Y-100651842D01*
X140321572Y-100715782D01*
X140331379Y-100795017D01*
X140342696Y-100887278D01*
X140355253Y-100990297D01*
X140368778Y-101101805D01*
X140382999Y-101219534D01*
X140397643Y-101341215D01*
X140412440Y-101464579D01*
X140427117Y-101587359D01*
X140441404Y-101707285D01*
X140455027Y-101822089D01*
X140467715Y-101929502D01*
X140479198Y-102027257D01*
X140489201Y-102113083D01*
X140497455Y-102184714D01*
X140503687Y-102239880D01*
X140507626Y-102276313D01*
X140508999Y-102291744D01*
X140508999Y-102319100D01*
X139329196Y-102319100D01*
X139314926Y-102187235D01*
X139309851Y-102141797D01*
X139303600Y-102089393D01*
X139298184Y-102047747D01*
X139294390Y-102023138D01*
X139288124Y-101990904D01*
X140122197Y-101990904D01*
X140122197Y-101962972D01*
X140121318Y-101951688D01*
X140117837Y-101918269D01*
X140111944Y-101865462D01*
X140103895Y-101795430D01*
X140093941Y-101710337D01*
X140082336Y-101612346D01*
X140069335Y-101503622D01*
X140055190Y-101386327D01*
X140040155Y-101262626D01*
X140028142Y-101163890D01*
X140013797Y-101045199D01*
X140000543Y-100934675D01*
X139988632Y-100834475D01*
X139978319Y-100746757D01*
X139969857Y-100673677D01*
X139963498Y-100617392D01*
X139959497Y-100580061D01*
X139958106Y-100563839D01*
X139958220Y-100558019D01*
X139960459Y-100549431D01*
X139968343Y-100543646D01*
X139985433Y-100540111D01*
X140015287Y-100538272D01*
X140061465Y-100537575D01*
X140127526Y-100537466D01*
X140296954Y-100537466D01*
X140303407Y-100575560D01*
G37*
G36*
X134543102Y-104339654D02*
G01*
X134560122Y-104480135D01*
X134576288Y-104614105D01*
X134591379Y-104739702D01*
X134605173Y-104855065D01*
X134617450Y-104958330D01*
X134627990Y-105047637D01*
X134636572Y-105121122D01*
X134642975Y-105176924D01*
X134646979Y-105213181D01*
X134648362Y-105228030D01*
X134648329Y-105229621D01*
X134645991Y-105237424D01*
X134637492Y-105242864D01*
X134619376Y-105246363D01*
X134588187Y-105248341D01*
X134540469Y-105249219D01*
X134472766Y-105249418D01*
X134430611Y-105249390D01*
X134375173Y-105248990D01*
X134337447Y-105247695D01*
X134313821Y-105244978D01*
X134300682Y-105240314D01*
X134294418Y-105233178D01*
X134291414Y-105223045D01*
X134291306Y-105222518D01*
X134288595Y-105204382D01*
X134283706Y-105167731D01*
X134277153Y-105116741D01*
X134269448Y-105055590D01*
X134261106Y-104988455D01*
X134252639Y-104919513D01*
X134244560Y-104852941D01*
X134237383Y-104792916D01*
X134231622Y-104743616D01*
X134227788Y-104709217D01*
X134226396Y-104693896D01*
X134218747Y-104692531D01*
X134191140Y-104690470D01*
X134146996Y-104688144D01*
X134090092Y-104685749D01*
X134024204Y-104683477D01*
X133921361Y-104678501D01*
X133823033Y-104668366D01*
X133740418Y-104652153D01*
X133669546Y-104628498D01*
X133606451Y-104596039D01*
X133547164Y-104553412D01*
X133487718Y-104499257D01*
X133428475Y-104432875D01*
X133364057Y-104332882D01*
X133319871Y-104222604D01*
X133295475Y-104100850D01*
X133294182Y-104066424D01*
X133652644Y-104066424D01*
X133655861Y-104100521D01*
X133666384Y-104133809D01*
X133686330Y-104176895D01*
X133690150Y-104184460D01*
X133736845Y-104253288D01*
X133796069Y-104302694D01*
X133869123Y-104333796D01*
X133890330Y-104337846D01*
X133934185Y-104342461D01*
X133989010Y-104345625D01*
X134047647Y-104346815D01*
X134057933Y-104346814D01*
X134112184Y-104346361D01*
X134147533Y-104344700D01*
X134167910Y-104341221D01*
X134177245Y-104335313D01*
X134179469Y-104326368D01*
X134179391Y-104324267D01*
X134177404Y-104301983D01*
X134173063Y-104261144D01*
X134166797Y-104205577D01*
X134159036Y-104139110D01*
X134150208Y-104065570D01*
X134148007Y-104047427D01*
X134139414Y-103975691D01*
X134131984Y-103912270D01*
X134126146Y-103860902D01*
X134122324Y-103825324D01*
X134120947Y-103809274D01*
X134114798Y-103803444D01*
X134089734Y-103798143D01*
X134049779Y-103795534D01*
X133999719Y-103795411D01*
X133944338Y-103797563D01*
X133888420Y-103801784D01*
X133836749Y-103807864D01*
X133794111Y-103815594D01*
X133765290Y-103824768D01*
X133740844Y-103838811D01*
X133696749Y-103882017D01*
X133668250Y-103941661D01*
X133654769Y-104018758D01*
X133654616Y-104020911D01*
X133652644Y-104066424D01*
X133294182Y-104066424D01*
X133290428Y-103966430D01*
X133291175Y-103944046D01*
X133293782Y-103891532D01*
X133298255Y-103852743D01*
X133306186Y-103820437D01*
X133319164Y-103787370D01*
X133338782Y-103746301D01*
X133366414Y-103696517D01*
X133422339Y-103624041D01*
X133491497Y-103566121D01*
X133576850Y-103520497D01*
X133681357Y-103484912D01*
X133697318Y-103481084D01*
X133729817Y-103475617D01*
X133772174Y-103471108D01*
X133827108Y-103467389D01*
X133897335Y-103464291D01*
X133985571Y-103461647D01*
X134094532Y-103459286D01*
X134119946Y-103458827D01*
X134204855Y-103457628D01*
X134280830Y-103457060D01*
X134344970Y-103457109D01*
X134394375Y-103457763D01*
X134426145Y-103459008D01*
X134437379Y-103460832D01*
X134437381Y-103460882D01*
X134438842Y-103474210D01*
X134442908Y-103508928D01*
X134449359Y-103563212D01*
X134457977Y-103635237D01*
X134468540Y-103723178D01*
X134480831Y-103825210D01*
X134494629Y-103939509D01*
X134509714Y-104064249D01*
X134525868Y-104197605D01*
X134541490Y-104326368D01*
X134542871Y-104337752D01*
X134543102Y-104339654D01*
G37*
G36*
X136207751Y-104356531D02*
G01*
X136224740Y-104496757D01*
X136240874Y-104630278D01*
X136255933Y-104755252D01*
X136269697Y-104869838D01*
X136281946Y-104972198D01*
X136292461Y-105060489D01*
X136301022Y-105132871D01*
X136307410Y-105187504D01*
X136311403Y-105222548D01*
X136312783Y-105236161D01*
X136310590Y-105239639D01*
X136295194Y-105244156D01*
X136263159Y-105246763D01*
X136212232Y-105247598D01*
X136140163Y-105246801D01*
X135967542Y-105243558D01*
X135935703Y-104985690D01*
X135931668Y-104952892D01*
X135922723Y-104879254D01*
X135914976Y-104814209D01*
X135908854Y-104761426D01*
X135904786Y-104724570D01*
X135903201Y-104707309D01*
X135901174Y-104699025D01*
X135892193Y-104692632D01*
X135872153Y-104688942D01*
X135836929Y-104687259D01*
X135782395Y-104686885D01*
X135662252Y-104686974D01*
X135511563Y-104968196D01*
X135360875Y-105249418D01*
X134951217Y-105249418D01*
X135003318Y-105152718D01*
X135013367Y-105133974D01*
X135044284Y-105075442D01*
X135078407Y-105009807D01*
X135114181Y-104940170D01*
X135150050Y-104869633D01*
X135184458Y-104801296D01*
X135215848Y-104738260D01*
X135242664Y-104683628D01*
X135263349Y-104640499D01*
X135276348Y-104611975D01*
X135280105Y-104601157D01*
X135275163Y-104597840D01*
X135255099Y-104584386D01*
X135225956Y-104564850D01*
X135147758Y-104501284D01*
X135073030Y-104413247D01*
X135012729Y-104309310D01*
X134968120Y-104191698D01*
X134940468Y-104062639D01*
X134936557Y-104020933D01*
X135298658Y-104020933D01*
X135303514Y-104089500D01*
X135323363Y-104157237D01*
X135357805Y-104220466D01*
X135406435Y-104275504D01*
X135468851Y-104318673D01*
X135474342Y-104321105D01*
X135505054Y-104329160D01*
X135549469Y-104336012D01*
X135602961Y-104341474D01*
X135660909Y-104345356D01*
X135718688Y-104347470D01*
X135771675Y-104347626D01*
X135815248Y-104345637D01*
X135844781Y-104341313D01*
X135855653Y-104334465D01*
X135854419Y-104317481D01*
X135850704Y-104281383D01*
X135845020Y-104230832D01*
X135837885Y-104170022D01*
X135829816Y-104103146D01*
X135821331Y-104034397D01*
X135812949Y-103967969D01*
X135805187Y-103908055D01*
X135798564Y-103858849D01*
X135793596Y-103824543D01*
X135790801Y-103809332D01*
X135778953Y-103802859D01*
X135748109Y-103798211D01*
X135703313Y-103795931D01*
X135649441Y-103795851D01*
X135591368Y-103797799D01*
X135533969Y-103801605D01*
X135482120Y-103807099D01*
X135440695Y-103814111D01*
X135414571Y-103822471D01*
X135378081Y-103847062D01*
X135335539Y-103896034D01*
X135309199Y-103955218D01*
X135298658Y-104020933D01*
X134936557Y-104020933D01*
X134934477Y-103998751D01*
X134939545Y-103888596D01*
X134965067Y-103788225D01*
X135010703Y-103698746D01*
X135076110Y-103621272D01*
X135124464Y-103579643D01*
X135180900Y-103542930D01*
X135245625Y-103514189D01*
X135326214Y-103489428D01*
X135346886Y-103484287D01*
X135377556Y-103478113D01*
X135412223Y-103473181D01*
X135454129Y-103469263D01*
X135506514Y-103466134D01*
X135572619Y-103463567D01*
X135655685Y-103461336D01*
X135758953Y-103459215D01*
X135795178Y-103458556D01*
X135889629Y-103457100D01*
X135963558Y-103456486D01*
X136019148Y-103456770D01*
X136058584Y-103458007D01*
X136084049Y-103460255D01*
X136097726Y-103463568D01*
X136101800Y-103468002D01*
X136101801Y-103468072D01*
X136103249Y-103482456D01*
X136107306Y-103518221D01*
X136113752Y-103573522D01*
X136122366Y-103646516D01*
X136132930Y-103735357D01*
X136145224Y-103838203D01*
X136159026Y-103953208D01*
X136174118Y-104078529D01*
X136190280Y-104212321D01*
X136205078Y-104334465D01*
X136207292Y-104352741D01*
X136207751Y-104356531D01*
G37*
G36*
X138997045Y-101668106D02*
G01*
X138970179Y-101787698D01*
X138928077Y-101894171D01*
X138878169Y-101980497D01*
X138796020Y-102084796D01*
X138698358Y-102171798D01*
X138584891Y-102241707D01*
X138455331Y-102294727D01*
X138309388Y-102331063D01*
X138258596Y-102336709D01*
X138187985Y-102338528D01*
X138108614Y-102336220D01*
X138027868Y-102330183D01*
X137953133Y-102320816D01*
X137891794Y-102308518D01*
X137853638Y-102297503D01*
X137728776Y-102246892D01*
X137610773Y-102177250D01*
X137504505Y-102091795D01*
X137414847Y-101993744D01*
X137357440Y-101908852D01*
X137303338Y-101809059D01*
X137257622Y-101704372D01*
X137224831Y-101604102D01*
X137223798Y-101600086D01*
X137207247Y-101509070D01*
X137199120Y-101405863D01*
X137199238Y-101362583D01*
X137555890Y-101362583D01*
X137560616Y-101475112D01*
X137586467Y-101588647D01*
X137633732Y-101700713D01*
X137647272Y-101725268D01*
X137713778Y-101819205D01*
X137793354Y-101894006D01*
X137885421Y-101949209D01*
X137989402Y-101984353D01*
X138016085Y-101989701D01*
X138089382Y-101998695D01*
X138164500Y-102001141D01*
X138233344Y-101996989D01*
X138287818Y-101986190D01*
X138315926Y-101976448D01*
X138412335Y-101928186D01*
X138494038Y-101862107D01*
X138560215Y-101779178D01*
X138610047Y-101680371D01*
X138642712Y-101566654D01*
X138648148Y-101537807D01*
X138653799Y-101497379D01*
X138654773Y-101460844D01*
X138651069Y-101419248D01*
X138642688Y-101363637D01*
X138624195Y-101278311D01*
X138582748Y-101165240D01*
X138525344Y-101068409D01*
X138452976Y-100988645D01*
X138366640Y-100926778D01*
X138267331Y-100883634D01*
X138156044Y-100860042D01*
X138033773Y-100856829D01*
X137978558Y-100862423D01*
X137880952Y-100887321D01*
X137794437Y-100931768D01*
X137716126Y-100997041D01*
X137665564Y-101055780D01*
X137608654Y-101150442D01*
X137571999Y-101253535D01*
X137555890Y-101362583D01*
X137199238Y-101362583D01*
X137199411Y-101298983D01*
X137208111Y-101196951D01*
X137225216Y-101108287D01*
X137247038Y-101039396D01*
X137302741Y-100919441D01*
X137376222Y-100812970D01*
X137465871Y-100721067D01*
X137570078Y-100644821D01*
X137687232Y-100585316D01*
X137815723Y-100543638D01*
X137953942Y-100520873D01*
X138100277Y-100518108D01*
X138144832Y-100520971D01*
X138257248Y-100535146D01*
X138357690Y-100559699D01*
X138453524Y-100596260D01*
X138457492Y-100598055D01*
X138578595Y-100665869D01*
X138688917Y-100753258D01*
X138786487Y-100858115D01*
X138869336Y-100978334D01*
X138935495Y-101111809D01*
X138951233Y-101153216D01*
X138985766Y-101277949D01*
X139004883Y-101408497D01*
X139006372Y-101460844D01*
X139008628Y-101540127D01*
X138997045Y-101668106D01*
G37*
%TD*%
D10*
%TO.C,J2*%
X117921875Y-96520000D03*
D11*
X117921875Y-99060000D03*
X117921875Y-101600000D03*
X117921875Y-104140000D03*
X117921875Y-106680000D03*
X117921875Y-109220000D03*
%TD*%
D12*
%TO.C,J1*%
X128637500Y-110985000D03*
X128637500Y-94755000D03*
X141337500Y-110985000D03*
X141337500Y-94755000D03*
X134987500Y-110985000D03*
X134987500Y-94755000D03*
%TD*%
M02*
