%TF.GenerationSoftware,KiCad,Pcbnew,(6.0.1)*%
%TF.CreationDate,2022-04-30T00:42:49-04:00*%
%TF.ProjectId,TRS_Breakout,5452535f-4272-4656-916b-6f75742e6b69,rev?*%
%TF.SameCoordinates,Original*%
%TF.FileFunction,Copper,L2,Bot*%
%TF.FilePolarity,Positive*%
%FSLAX46Y46*%
G04 Gerber Fmt 4.6, Leading zero omitted, Abs format (unit mm)*
G04 Created by KiCad (PCBNEW (6.0.1)) date 2022-04-30 00:42:49*
%MOMM*%
%LPD*%
G01*
G04 APERTURE LIST*
%TA.AperFunction,ComponentPad*%
%ADD10R,1.700000X1.700000*%
%TD*%
%TA.AperFunction,ComponentPad*%
%ADD11O,1.700000X1.700000*%
%TD*%
%TA.AperFunction,ComponentPad*%
%ADD12C,3.400000*%
%TD*%
G04 APERTURE END LIST*
D10*
%TO.P,J2,1,Pin_1*%
%TO.N,Net-(J1-PadT)*%
X117921875Y-96520000D03*
D11*
%TO.P,J2,2,Pin_2*%
%TO.N,Net-(J1-PadR)*%
X117921875Y-99060000D03*
%TO.P,J2,3,Pin_3*%
%TO.N,Net-(J1-PadS)*%
X117921875Y-101600000D03*
%TO.P,J2,4,Pin_4*%
%TO.N,Net-(J1-PadSN)*%
X117921875Y-104140000D03*
%TO.P,J2,5,Pin_5*%
%TO.N,Net-(J1-PadRN)*%
X117921875Y-106680000D03*
%TO.P,J2,6,Pin_6*%
%TO.N,Net-(J1-PadTN)*%
X117921875Y-109220000D03*
%TD*%
D12*
%TO.P,J1,TN*%
%TO.N,Net-(J1-PadTN)*%
X128637500Y-110985000D03*
%TO.P,J1,T*%
%TO.N,Net-(J1-PadT)*%
X128637500Y-94755000D03*
%TO.P,J1,SN*%
%TO.N,Net-(J1-PadSN)*%
X141337500Y-110985000D03*
%TO.P,J1,S*%
%TO.N,Net-(J1-PadS)*%
X141337500Y-94755000D03*
%TO.P,J1,RN*%
%TO.N,Net-(J1-PadRN)*%
X134987500Y-110985000D03*
%TO.P,J1,R*%
%TO.N,Net-(J1-PadR)*%
X134987500Y-94755000D03*
%TD*%
%TA.AperFunction,NonConductor*%
G36*
X144771541Y-91542398D02*
G01*
X144772618Y-91542748D01*
X144772620Y-91542748D01*
X144780000Y-91545146D01*
X144787381Y-91542748D01*
X144795141Y-91542748D01*
X144795141Y-91542789D01*
X144802408Y-91541961D01*
X144978903Y-91557402D01*
X144987315Y-91558886D01*
X145176024Y-91609450D01*
X145184048Y-91612370D01*
X145361116Y-91694939D01*
X145368513Y-91699210D01*
X145528550Y-91811269D01*
X145535093Y-91816759D01*
X145673241Y-91954907D01*
X145678731Y-91961450D01*
X145790790Y-92121487D01*
X145795061Y-92128884D01*
X145877630Y-92305952D01*
X145880551Y-92313978D01*
X145931114Y-92502686D01*
X145932598Y-92511097D01*
X145948039Y-92687592D01*
X145947211Y-92694859D01*
X145947252Y-92694859D01*
X145947252Y-92702619D01*
X145944854Y-92710000D01*
X145947252Y-92717380D01*
X145947252Y-92717382D01*
X145947602Y-92718459D01*
X145950000Y-92733600D01*
X145950000Y-113006400D01*
X145947602Y-113021541D01*
X145947252Y-113022618D01*
X145947252Y-113022620D01*
X145944854Y-113030000D01*
X145947252Y-113037381D01*
X145947252Y-113045141D01*
X145947211Y-113045141D01*
X145948039Y-113052408D01*
X145932598Y-113228903D01*
X145931114Y-113237314D01*
X145880551Y-113426022D01*
X145877630Y-113434048D01*
X145795061Y-113611116D01*
X145790790Y-113618513D01*
X145678731Y-113778550D01*
X145673241Y-113785093D01*
X145535093Y-113923241D01*
X145528550Y-113928731D01*
X145368513Y-114040790D01*
X145361116Y-114045061D01*
X145184048Y-114127630D01*
X145176024Y-114130550D01*
X145134110Y-114141781D01*
X144987314Y-114181114D01*
X144978903Y-114182598D01*
X144802408Y-114198039D01*
X144795141Y-114197211D01*
X144795141Y-114197252D01*
X144787381Y-114197252D01*
X144780000Y-114194854D01*
X144772620Y-114197252D01*
X144772618Y-114197252D01*
X144771541Y-114197602D01*
X144756400Y-114200000D01*
X113921626Y-114200000D01*
X113906485Y-114197602D01*
X113905408Y-114197252D01*
X113905406Y-114197252D01*
X113898026Y-114194854D01*
X113890645Y-114197252D01*
X113882885Y-114197252D01*
X113882885Y-114197211D01*
X113875618Y-114198039D01*
X113699123Y-114182598D01*
X113690712Y-114181114D01*
X113543916Y-114141781D01*
X113502002Y-114130550D01*
X113493978Y-114127630D01*
X113316910Y-114045061D01*
X113309513Y-114040790D01*
X113149476Y-113928731D01*
X113142933Y-113923241D01*
X113004785Y-113785093D01*
X112999295Y-113778550D01*
X112887236Y-113618513D01*
X112882965Y-113611116D01*
X112800396Y-113434048D01*
X112797475Y-113426022D01*
X112746912Y-113237314D01*
X112745428Y-113228903D01*
X112729987Y-113052408D01*
X112730815Y-113045141D01*
X112730774Y-113045141D01*
X112730774Y-113037381D01*
X112733172Y-113030000D01*
X112730774Y-113022620D01*
X112730774Y-113022618D01*
X112730424Y-113021541D01*
X112728026Y-113006400D01*
X112728026Y-110925151D01*
X126733085Y-110925151D01*
X126733153Y-110926883D01*
X126733153Y-110926885D01*
X126735437Y-110985000D01*
X126743652Y-111194083D01*
X126743962Y-111195780D01*
X126775720Y-111369671D01*
X126792005Y-111458843D01*
X126877182Y-111714148D01*
X126997481Y-111954905D01*
X127150503Y-112176309D01*
X127333195Y-112373944D01*
X127334540Y-112375039D01*
X127334541Y-112375040D01*
X127477575Y-112491488D01*
X127541911Y-112543866D01*
X127543391Y-112544757D01*
X127771008Y-112681794D01*
X127771013Y-112681796D01*
X127772487Y-112682684D01*
X128020322Y-112787628D01*
X128280472Y-112856606D01*
X128547745Y-112888240D01*
X128549487Y-112888199D01*
X128549488Y-112888199D01*
X128815070Y-112881940D01*
X128816810Y-112881899D01*
X128818520Y-112881614D01*
X128818524Y-112881614D01*
X129080580Y-112837996D01*
X129080585Y-112837995D01*
X129082296Y-112837710D01*
X129083953Y-112837186D01*
X129083957Y-112837185D01*
X129337245Y-112757080D01*
X129337246Y-112757080D01*
X129338908Y-112756554D01*
X129340474Y-112755802D01*
X129340479Y-112755800D01*
X129579960Y-112640803D01*
X129579966Y-112640800D01*
X129581525Y-112640051D01*
X129805306Y-112490526D01*
X130005786Y-112310961D01*
X130178965Y-112104940D01*
X130321387Y-111876572D01*
X130430212Y-111630416D01*
X130478136Y-111460491D01*
X130502798Y-111373046D01*
X130502799Y-111373042D01*
X130503267Y-111371382D01*
X130539095Y-111104638D01*
X130542855Y-110985000D01*
X130542767Y-110983760D01*
X130542767Y-110983750D01*
X130538618Y-110925151D01*
X133083085Y-110925151D01*
X133083153Y-110926883D01*
X133083153Y-110926885D01*
X133085437Y-110985000D01*
X133093652Y-111194083D01*
X133093962Y-111195780D01*
X133125720Y-111369671D01*
X133142005Y-111458843D01*
X133227182Y-111714148D01*
X133347481Y-111954905D01*
X133500503Y-112176309D01*
X133683195Y-112373944D01*
X133684540Y-112375039D01*
X133684541Y-112375040D01*
X133827575Y-112491488D01*
X133891911Y-112543866D01*
X133893391Y-112544757D01*
X134121008Y-112681794D01*
X134121013Y-112681796D01*
X134122487Y-112682684D01*
X134370322Y-112787628D01*
X134630472Y-112856606D01*
X134897745Y-112888240D01*
X134899487Y-112888199D01*
X134899488Y-112888199D01*
X135165070Y-112881940D01*
X135166810Y-112881899D01*
X135168520Y-112881614D01*
X135168524Y-112881614D01*
X135430580Y-112837996D01*
X135430585Y-112837995D01*
X135432296Y-112837710D01*
X135433953Y-112837186D01*
X135433957Y-112837185D01*
X135687245Y-112757080D01*
X135687246Y-112757080D01*
X135688908Y-112756554D01*
X135690474Y-112755802D01*
X135690479Y-112755800D01*
X135929960Y-112640803D01*
X135929966Y-112640800D01*
X135931525Y-112640051D01*
X136155306Y-112490526D01*
X136355786Y-112310961D01*
X136528965Y-112104940D01*
X136671387Y-111876572D01*
X136780212Y-111630416D01*
X136828136Y-111460491D01*
X136852798Y-111373046D01*
X136852799Y-111373042D01*
X136853267Y-111371382D01*
X136889095Y-111104638D01*
X136892855Y-110985000D01*
X136892767Y-110983760D01*
X136892767Y-110983750D01*
X136888618Y-110925151D01*
X139433085Y-110925151D01*
X139433153Y-110926883D01*
X139433153Y-110926885D01*
X139435437Y-110985000D01*
X139443652Y-111194083D01*
X139443962Y-111195780D01*
X139475720Y-111369671D01*
X139492005Y-111458843D01*
X139577182Y-111714148D01*
X139697481Y-111954905D01*
X139850503Y-112176309D01*
X140033195Y-112373944D01*
X140034540Y-112375039D01*
X140034541Y-112375040D01*
X140177575Y-112491488D01*
X140241911Y-112543866D01*
X140243391Y-112544757D01*
X140471008Y-112681794D01*
X140471013Y-112681796D01*
X140472487Y-112682684D01*
X140720322Y-112787628D01*
X140980472Y-112856606D01*
X141247745Y-112888240D01*
X141249487Y-112888199D01*
X141249488Y-112888199D01*
X141515070Y-112881940D01*
X141516810Y-112881899D01*
X141518520Y-112881614D01*
X141518524Y-112881614D01*
X141780580Y-112837996D01*
X141780585Y-112837995D01*
X141782296Y-112837710D01*
X141783953Y-112837186D01*
X141783957Y-112837185D01*
X142037245Y-112757080D01*
X142037246Y-112757080D01*
X142038908Y-112756554D01*
X142040474Y-112755802D01*
X142040479Y-112755800D01*
X142279960Y-112640803D01*
X142279966Y-112640800D01*
X142281525Y-112640051D01*
X142505306Y-112490526D01*
X142705786Y-112310961D01*
X142878965Y-112104940D01*
X143021387Y-111876572D01*
X143130212Y-111630416D01*
X143178136Y-111460491D01*
X143202798Y-111373046D01*
X143202799Y-111373042D01*
X143203267Y-111371382D01*
X143239095Y-111104638D01*
X143242855Y-110985000D01*
X143242767Y-110983760D01*
X143242767Y-110983750D01*
X143223969Y-110718254D01*
X143223969Y-110718252D01*
X143223847Y-110716533D01*
X143167200Y-110453423D01*
X143074047Y-110200919D01*
X142946244Y-109964060D01*
X142786343Y-109747571D01*
X142597534Y-109555772D01*
X142383583Y-109392490D01*
X142328118Y-109361428D01*
X142150281Y-109261834D01*
X142150278Y-109261833D01*
X142148761Y-109260983D01*
X142115471Y-109248104D01*
X141899378Y-109164504D01*
X141899373Y-109164502D01*
X141897751Y-109163875D01*
X141763412Y-109132737D01*
X141637251Y-109103494D01*
X141637247Y-109103493D01*
X141635563Y-109103103D01*
X141367428Y-109079880D01*
X141365700Y-109079975D01*
X141365696Y-109079975D01*
X141162284Y-109091170D01*
X141098696Y-109094669D01*
X141097000Y-109095006D01*
X141096995Y-109095007D01*
X140966712Y-109120923D01*
X140834728Y-109147176D01*
X140580792Y-109236352D01*
X140341955Y-109360418D01*
X140340542Y-109361428D01*
X140124391Y-109515891D01*
X140124387Y-109515894D01*
X140122981Y-109516899D01*
X140121728Y-109518095D01*
X140121726Y-109518096D01*
X140035269Y-109600572D01*
X139928240Y-109702672D01*
X139761618Y-109914032D01*
X139760749Y-109915527D01*
X139760749Y-109915528D01*
X139647918Y-110109782D01*
X139626439Y-110146760D01*
X139625789Y-110148366D01*
X139625787Y-110148369D01*
X139602935Y-110204788D01*
X139525400Y-110396213D01*
X139460517Y-110657414D01*
X139433085Y-110925151D01*
X136888618Y-110925151D01*
X136873969Y-110718254D01*
X136873969Y-110718252D01*
X136873847Y-110716533D01*
X136817200Y-110453423D01*
X136724047Y-110200919D01*
X136596244Y-109964060D01*
X136436343Y-109747571D01*
X136247534Y-109555772D01*
X136033583Y-109392490D01*
X135978118Y-109361428D01*
X135800281Y-109261834D01*
X135800278Y-109261833D01*
X135798761Y-109260983D01*
X135765471Y-109248104D01*
X135549378Y-109164504D01*
X135549373Y-109164502D01*
X135547751Y-109163875D01*
X135413412Y-109132737D01*
X135287251Y-109103494D01*
X135287247Y-109103493D01*
X135285563Y-109103103D01*
X135017428Y-109079880D01*
X135015700Y-109079975D01*
X135015696Y-109079975D01*
X134812284Y-109091170D01*
X134748696Y-109094669D01*
X134747000Y-109095006D01*
X134746995Y-109095007D01*
X134616712Y-109120923D01*
X134484728Y-109147176D01*
X134230792Y-109236352D01*
X133991955Y-109360418D01*
X133990542Y-109361428D01*
X133774391Y-109515891D01*
X133774387Y-109515894D01*
X133772981Y-109516899D01*
X133771728Y-109518095D01*
X133771726Y-109518096D01*
X133685269Y-109600572D01*
X133578240Y-109702672D01*
X133411618Y-109914032D01*
X133410749Y-109915527D01*
X133410749Y-109915528D01*
X133297918Y-110109782D01*
X133276439Y-110146760D01*
X133275789Y-110148366D01*
X133275787Y-110148369D01*
X133252935Y-110204788D01*
X133175400Y-110396213D01*
X133110517Y-110657414D01*
X133083085Y-110925151D01*
X130538618Y-110925151D01*
X130523969Y-110718254D01*
X130523969Y-110718252D01*
X130523847Y-110716533D01*
X130467200Y-110453423D01*
X130374047Y-110200919D01*
X130246244Y-109964060D01*
X130086343Y-109747571D01*
X129897534Y-109555772D01*
X129683583Y-109392490D01*
X129628118Y-109361428D01*
X129450281Y-109261834D01*
X129450278Y-109261833D01*
X129448761Y-109260983D01*
X129415471Y-109248104D01*
X129199378Y-109164504D01*
X129199373Y-109164502D01*
X129197751Y-109163875D01*
X129063412Y-109132737D01*
X128937251Y-109103494D01*
X128937247Y-109103493D01*
X128935563Y-109103103D01*
X128667428Y-109079880D01*
X128665700Y-109079975D01*
X128665696Y-109079975D01*
X128462284Y-109091170D01*
X128398696Y-109094669D01*
X128397000Y-109095006D01*
X128396995Y-109095007D01*
X128266712Y-109120923D01*
X128134728Y-109147176D01*
X127880792Y-109236352D01*
X127641955Y-109360418D01*
X127640542Y-109361428D01*
X127424391Y-109515891D01*
X127424387Y-109515894D01*
X127422981Y-109516899D01*
X127421728Y-109518095D01*
X127421726Y-109518096D01*
X127335269Y-109600572D01*
X127228240Y-109702672D01*
X127061618Y-109914032D01*
X127060749Y-109915527D01*
X127060749Y-109915528D01*
X126947918Y-110109782D01*
X126926439Y-110146760D01*
X126925789Y-110148366D01*
X126925787Y-110148369D01*
X126902935Y-110204788D01*
X126825400Y-110396213D01*
X126760517Y-110657414D01*
X126733085Y-110925151D01*
X112728026Y-110925151D01*
X112728026Y-109205262D01*
X116866395Y-109205262D01*
X116866595Y-109207644D01*
X116866595Y-109207648D01*
X116874137Y-109297454D01*
X116883634Y-109410553D01*
X116940419Y-109608586D01*
X117034587Y-109791818D01*
X117036073Y-109793693D01*
X117036075Y-109793696D01*
X117130378Y-109912677D01*
X117162552Y-109953270D01*
X117319439Y-110086791D01*
X117499273Y-110187297D01*
X117536510Y-110199396D01*
X117692922Y-110250218D01*
X117692926Y-110250219D01*
X117695204Y-110250959D01*
X117899769Y-110275351D01*
X118105175Y-110259546D01*
X118303600Y-110204145D01*
X118305729Y-110203070D01*
X118305733Y-110203068D01*
X118392603Y-110159186D01*
X118487485Y-110111258D01*
X118649826Y-109984424D01*
X118651394Y-109982608D01*
X118782868Y-109830293D01*
X118782872Y-109830288D01*
X118784439Y-109828472D01*
X118886198Y-109649344D01*
X118899757Y-109608586D01*
X118950470Y-109456135D01*
X118951226Y-109453863D01*
X118958846Y-109393548D01*
X118976875Y-109250828D01*
X118976875Y-109250827D01*
X118977046Y-109249474D01*
X118977458Y-109220000D01*
X118957355Y-109014970D01*
X118952308Y-108998251D01*
X118898501Y-108820039D01*
X118897810Y-108817749D01*
X118889471Y-108802066D01*
X118802217Y-108637962D01*
X118802214Y-108637958D01*
X118801093Y-108635849D01*
X118670886Y-108476200D01*
X118512150Y-108344882D01*
X118330930Y-108246897D01*
X118134129Y-108185977D01*
X118131754Y-108185727D01*
X118131752Y-108185727D01*
X117931627Y-108164693D01*
X117931622Y-108164693D01*
X117929244Y-108164443D01*
X117926859Y-108164660D01*
X117926854Y-108164660D01*
X117826661Y-108173778D01*
X117724078Y-108183114D01*
X117583119Y-108224600D01*
X117528750Y-108240602D01*
X117528748Y-108240603D01*
X117526447Y-108241280D01*
X117343877Y-108336726D01*
X117262081Y-108402491D01*
X117185187Y-108464315D01*
X117185184Y-108464318D01*
X117183322Y-108465815D01*
X117181783Y-108467649D01*
X117181782Y-108467650D01*
X117133026Y-108525755D01*
X117050899Y-108623630D01*
X116951651Y-108804162D01*
X116950927Y-108806443D01*
X116950927Y-108806444D01*
X116938491Y-108845649D01*
X116889359Y-109000532D01*
X116866395Y-109205262D01*
X112728026Y-109205262D01*
X112728026Y-106665262D01*
X116866395Y-106665262D01*
X116866595Y-106667644D01*
X116866595Y-106667648D01*
X116870221Y-106710828D01*
X116883634Y-106870553D01*
X116940419Y-107068586D01*
X117034587Y-107251818D01*
X117036073Y-107253693D01*
X117036075Y-107253696D01*
X117145908Y-107392270D01*
X117162552Y-107413270D01*
X117319439Y-107546791D01*
X117499273Y-107647297D01*
X117547811Y-107663068D01*
X117692922Y-107710218D01*
X117692926Y-107710219D01*
X117695204Y-107710959D01*
X117899769Y-107735351D01*
X118105175Y-107719546D01*
X118303600Y-107664145D01*
X118305729Y-107663070D01*
X118305733Y-107663068D01*
X118392603Y-107619186D01*
X118487485Y-107571258D01*
X118649826Y-107444424D01*
X118675375Y-107414825D01*
X118782868Y-107290293D01*
X118782872Y-107290288D01*
X118784439Y-107288472D01*
X118886198Y-107109344D01*
X118899757Y-107068586D01*
X118950470Y-106916135D01*
X118951226Y-106913863D01*
X118977046Y-106709474D01*
X118977458Y-106680000D01*
X118957355Y-106474970D01*
X118952308Y-106458251D01*
X118898501Y-106280039D01*
X118897810Y-106277749D01*
X118889471Y-106262066D01*
X118802217Y-106097962D01*
X118802214Y-106097958D01*
X118801093Y-106095849D01*
X118670886Y-105936200D01*
X118512150Y-105804882D01*
X118330930Y-105706897D01*
X118134129Y-105645977D01*
X118131754Y-105645727D01*
X118131752Y-105645727D01*
X117931627Y-105624693D01*
X117931622Y-105624693D01*
X117929244Y-105624443D01*
X117926859Y-105624660D01*
X117926854Y-105624660D01*
X117826661Y-105633778D01*
X117724078Y-105643114D01*
X117583119Y-105684600D01*
X117528750Y-105700602D01*
X117528748Y-105700603D01*
X117526447Y-105701280D01*
X117343877Y-105796726D01*
X117262081Y-105862491D01*
X117185187Y-105924315D01*
X117185184Y-105924318D01*
X117183322Y-105925815D01*
X117181783Y-105927649D01*
X117181782Y-105927650D01*
X117133026Y-105985755D01*
X117050899Y-106083630D01*
X116951651Y-106264162D01*
X116950927Y-106266443D01*
X116950927Y-106266444D01*
X116938491Y-106305649D01*
X116889359Y-106460532D01*
X116866395Y-106665262D01*
X112728026Y-106665262D01*
X112728026Y-104125262D01*
X116866395Y-104125262D01*
X116866595Y-104127644D01*
X116866595Y-104127648D01*
X116870221Y-104170828D01*
X116883634Y-104330553D01*
X116940419Y-104528586D01*
X117034587Y-104711818D01*
X117036073Y-104713693D01*
X117036075Y-104713696D01*
X117145908Y-104852270D01*
X117162552Y-104873270D01*
X117319439Y-105006791D01*
X117499273Y-105107297D01*
X117547811Y-105123068D01*
X117692922Y-105170218D01*
X117692926Y-105170219D01*
X117695204Y-105170959D01*
X117899769Y-105195351D01*
X118105175Y-105179546D01*
X118303600Y-105124145D01*
X118305729Y-105123070D01*
X118305733Y-105123068D01*
X118392603Y-105079186D01*
X118487485Y-105031258D01*
X118649826Y-104904424D01*
X118675375Y-104874825D01*
X118782868Y-104750293D01*
X118782872Y-104750288D01*
X118784439Y-104748472D01*
X118886198Y-104569344D01*
X118899757Y-104528586D01*
X118950470Y-104376135D01*
X118951226Y-104373863D01*
X118977046Y-104169474D01*
X118977458Y-104140000D01*
X118957355Y-103934970D01*
X118952308Y-103918251D01*
X118898501Y-103740039D01*
X118897810Y-103737749D01*
X118889471Y-103722066D01*
X118802217Y-103557962D01*
X118802214Y-103557958D01*
X118801093Y-103555849D01*
X118670886Y-103396200D01*
X118512150Y-103264882D01*
X118330930Y-103166897D01*
X118134129Y-103105977D01*
X118131754Y-103105727D01*
X118131752Y-103105727D01*
X117931627Y-103084693D01*
X117931622Y-103084693D01*
X117929244Y-103084443D01*
X117926859Y-103084660D01*
X117926854Y-103084660D01*
X117826661Y-103093778D01*
X117724078Y-103103114D01*
X117583119Y-103144600D01*
X117528750Y-103160602D01*
X117528748Y-103160603D01*
X117526447Y-103161280D01*
X117343877Y-103256726D01*
X117262081Y-103322491D01*
X117185187Y-103384315D01*
X117185184Y-103384318D01*
X117183322Y-103385815D01*
X117181783Y-103387649D01*
X117181782Y-103387650D01*
X117133026Y-103445755D01*
X117050899Y-103543630D01*
X116951651Y-103724162D01*
X116950927Y-103726443D01*
X116950927Y-103726444D01*
X116938491Y-103765649D01*
X116889359Y-103920532D01*
X116866395Y-104125262D01*
X112728026Y-104125262D01*
X112728026Y-101585262D01*
X116866395Y-101585262D01*
X116866595Y-101587644D01*
X116866595Y-101587648D01*
X116870221Y-101630828D01*
X116883634Y-101790553D01*
X116940419Y-101988586D01*
X117034587Y-102171818D01*
X117036073Y-102173693D01*
X117036075Y-102173696D01*
X117145908Y-102312270D01*
X117162552Y-102333270D01*
X117319439Y-102466791D01*
X117499273Y-102567297D01*
X117547811Y-102583068D01*
X117692922Y-102630218D01*
X117692926Y-102630219D01*
X117695204Y-102630959D01*
X117899769Y-102655351D01*
X118105175Y-102639546D01*
X118303600Y-102584145D01*
X118305729Y-102583070D01*
X118305733Y-102583068D01*
X118392603Y-102539186D01*
X118487485Y-102491258D01*
X118649826Y-102364424D01*
X118675375Y-102334825D01*
X118782868Y-102210293D01*
X118782872Y-102210288D01*
X118784439Y-102208472D01*
X118886198Y-102029344D01*
X118899757Y-101988586D01*
X118950470Y-101836135D01*
X118951226Y-101833863D01*
X118977046Y-101629474D01*
X118977458Y-101600000D01*
X118957355Y-101394970D01*
X118952308Y-101378251D01*
X118898501Y-101200039D01*
X118897810Y-101197749D01*
X118889471Y-101182066D01*
X118802217Y-101017962D01*
X118802214Y-101017958D01*
X118801093Y-101015849D01*
X118670886Y-100856200D01*
X118512150Y-100724882D01*
X118330930Y-100626897D01*
X118134129Y-100565977D01*
X118131754Y-100565727D01*
X118131752Y-100565727D01*
X117931627Y-100544693D01*
X117931622Y-100544693D01*
X117929244Y-100544443D01*
X117926859Y-100544660D01*
X117926854Y-100544660D01*
X117826661Y-100553778D01*
X117724078Y-100563114D01*
X117583119Y-100604600D01*
X117528750Y-100620602D01*
X117528748Y-100620603D01*
X117526447Y-100621280D01*
X117343877Y-100716726D01*
X117262081Y-100782491D01*
X117185187Y-100844315D01*
X117185184Y-100844318D01*
X117183322Y-100845815D01*
X117181783Y-100847649D01*
X117181782Y-100847650D01*
X117133026Y-100905755D01*
X117050899Y-101003630D01*
X116951651Y-101184162D01*
X116950927Y-101186443D01*
X116950927Y-101186444D01*
X116938491Y-101225649D01*
X116889359Y-101380532D01*
X116866395Y-101585262D01*
X112728026Y-101585262D01*
X112728026Y-99045262D01*
X116866395Y-99045262D01*
X116866595Y-99047644D01*
X116866595Y-99047648D01*
X116870221Y-99090828D01*
X116883634Y-99250553D01*
X116940419Y-99448586D01*
X117034587Y-99631818D01*
X117036073Y-99633693D01*
X117036075Y-99633696D01*
X117145908Y-99772270D01*
X117162552Y-99793270D01*
X117319439Y-99926791D01*
X117499273Y-100027297D01*
X117547811Y-100043068D01*
X117692922Y-100090218D01*
X117692926Y-100090219D01*
X117695204Y-100090959D01*
X117899769Y-100115351D01*
X118105175Y-100099546D01*
X118303600Y-100044145D01*
X118305729Y-100043070D01*
X118305733Y-100043068D01*
X118392603Y-99999186D01*
X118487485Y-99951258D01*
X118649826Y-99824424D01*
X118675375Y-99794825D01*
X118782868Y-99670293D01*
X118782872Y-99670288D01*
X118784439Y-99668472D01*
X118886198Y-99489344D01*
X118899757Y-99448586D01*
X118950470Y-99296135D01*
X118951226Y-99293863D01*
X118977046Y-99089474D01*
X118977458Y-99060000D01*
X118957355Y-98854970D01*
X118952308Y-98838251D01*
X118898501Y-98660039D01*
X118897810Y-98657749D01*
X118889471Y-98642066D01*
X118802217Y-98477962D01*
X118802214Y-98477958D01*
X118801093Y-98475849D01*
X118670886Y-98316200D01*
X118512150Y-98184882D01*
X118330930Y-98086897D01*
X118134129Y-98025977D01*
X118131754Y-98025727D01*
X118131752Y-98025727D01*
X117931627Y-98004693D01*
X117931622Y-98004693D01*
X117929244Y-98004443D01*
X117926859Y-98004660D01*
X117926854Y-98004660D01*
X117826661Y-98013778D01*
X117724078Y-98023114D01*
X117583119Y-98064600D01*
X117528750Y-98080602D01*
X117528748Y-98080603D01*
X117526447Y-98081280D01*
X117343877Y-98176726D01*
X117262081Y-98242491D01*
X117185187Y-98304315D01*
X117185184Y-98304318D01*
X117183322Y-98305815D01*
X117181783Y-98307649D01*
X117181782Y-98307650D01*
X117133026Y-98365755D01*
X117050899Y-98463630D01*
X116951651Y-98644162D01*
X116950927Y-98646443D01*
X116950927Y-98646444D01*
X116938491Y-98685649D01*
X116889359Y-98840532D01*
X116866395Y-99045262D01*
X112728026Y-99045262D01*
X112728026Y-97389748D01*
X116871375Y-97389748D01*
X116883008Y-97448231D01*
X116927323Y-97514552D01*
X116993644Y-97558867D01*
X117052127Y-97570500D01*
X118791623Y-97570500D01*
X118850106Y-97558867D01*
X118916427Y-97514552D01*
X118960742Y-97448231D01*
X118972375Y-97389748D01*
X118972375Y-95650252D01*
X118960742Y-95591769D01*
X118916427Y-95525448D01*
X118850106Y-95481133D01*
X118791623Y-95469500D01*
X117052127Y-95469500D01*
X116993644Y-95481133D01*
X116927323Y-95525448D01*
X116883008Y-95591769D01*
X116871375Y-95650252D01*
X116871375Y-97389748D01*
X112728026Y-97389748D01*
X112728026Y-94695151D01*
X126733085Y-94695151D01*
X126733153Y-94696883D01*
X126733153Y-94696885D01*
X126735437Y-94755000D01*
X126743652Y-94964083D01*
X126743962Y-94965780D01*
X126775720Y-95139671D01*
X126792005Y-95228843D01*
X126877182Y-95484148D01*
X126877952Y-95485688D01*
X126877954Y-95485694D01*
X126928951Y-95587755D01*
X126997481Y-95724905D01*
X127150503Y-95946309D01*
X127333195Y-96143944D01*
X127334540Y-96145039D01*
X127334541Y-96145040D01*
X127477575Y-96261488D01*
X127541911Y-96313866D01*
X127543391Y-96314757D01*
X127771008Y-96451794D01*
X127771013Y-96451796D01*
X127772487Y-96452684D01*
X128020322Y-96557628D01*
X128280472Y-96626606D01*
X128547745Y-96658240D01*
X128549487Y-96658199D01*
X128549488Y-96658199D01*
X128815070Y-96651940D01*
X128816810Y-96651899D01*
X128818520Y-96651614D01*
X128818524Y-96651614D01*
X129080580Y-96607996D01*
X129080585Y-96607995D01*
X129082296Y-96607710D01*
X129083953Y-96607186D01*
X129083957Y-96607185D01*
X129337245Y-96527080D01*
X129337246Y-96527080D01*
X129338908Y-96526554D01*
X129340474Y-96525802D01*
X129340479Y-96525800D01*
X129579960Y-96410803D01*
X129579966Y-96410800D01*
X129581525Y-96410051D01*
X129805306Y-96260526D01*
X130005786Y-96080961D01*
X130178965Y-95874940D01*
X130321387Y-95646572D01*
X130430212Y-95400416D01*
X130478136Y-95230491D01*
X130502798Y-95143046D01*
X130502799Y-95143042D01*
X130503267Y-95141382D01*
X130539095Y-94874638D01*
X130542855Y-94755000D01*
X130542767Y-94753760D01*
X130542767Y-94753750D01*
X130538618Y-94695151D01*
X133083085Y-94695151D01*
X133083153Y-94696883D01*
X133083153Y-94696885D01*
X133085437Y-94755000D01*
X133093652Y-94964083D01*
X133093962Y-94965780D01*
X133125720Y-95139671D01*
X133142005Y-95228843D01*
X133227182Y-95484148D01*
X133227952Y-95485688D01*
X133227954Y-95485694D01*
X133278951Y-95587755D01*
X133347481Y-95724905D01*
X133500503Y-95946309D01*
X133683195Y-96143944D01*
X133684540Y-96145039D01*
X133684541Y-96145040D01*
X133827575Y-96261488D01*
X133891911Y-96313866D01*
X133893391Y-96314757D01*
X134121008Y-96451794D01*
X134121013Y-96451796D01*
X134122487Y-96452684D01*
X134370322Y-96557628D01*
X134630472Y-96626606D01*
X134897745Y-96658240D01*
X134899487Y-96658199D01*
X134899488Y-96658199D01*
X135165070Y-96651940D01*
X135166810Y-96651899D01*
X135168520Y-96651614D01*
X135168524Y-96651614D01*
X135430580Y-96607996D01*
X135430585Y-96607995D01*
X135432296Y-96607710D01*
X135433953Y-96607186D01*
X135433957Y-96607185D01*
X135687245Y-96527080D01*
X135687246Y-96527080D01*
X135688908Y-96526554D01*
X135690474Y-96525802D01*
X135690479Y-96525800D01*
X135929960Y-96410803D01*
X135929966Y-96410800D01*
X135931525Y-96410051D01*
X136155306Y-96260526D01*
X136355786Y-96080961D01*
X136528965Y-95874940D01*
X136671387Y-95646572D01*
X136780212Y-95400416D01*
X136828136Y-95230491D01*
X136852798Y-95143046D01*
X136852799Y-95143042D01*
X136853267Y-95141382D01*
X136889095Y-94874638D01*
X136892855Y-94755000D01*
X136892767Y-94753760D01*
X136892767Y-94753750D01*
X136888618Y-94695151D01*
X139433085Y-94695151D01*
X139433153Y-94696883D01*
X139433153Y-94696885D01*
X139435437Y-94755000D01*
X139443652Y-94964083D01*
X139443962Y-94965780D01*
X139475720Y-95139671D01*
X139492005Y-95228843D01*
X139577182Y-95484148D01*
X139577952Y-95485688D01*
X139577954Y-95485694D01*
X139628951Y-95587755D01*
X139697481Y-95724905D01*
X139850503Y-95946309D01*
X140033195Y-96143944D01*
X140034540Y-96145039D01*
X140034541Y-96145040D01*
X140177575Y-96261488D01*
X140241911Y-96313866D01*
X140243391Y-96314757D01*
X140471008Y-96451794D01*
X140471013Y-96451796D01*
X140472487Y-96452684D01*
X140720322Y-96557628D01*
X140980472Y-96626606D01*
X141247745Y-96658240D01*
X141249487Y-96658199D01*
X141249488Y-96658199D01*
X141515070Y-96651940D01*
X141516810Y-96651899D01*
X141518520Y-96651614D01*
X141518524Y-96651614D01*
X141780580Y-96607996D01*
X141780585Y-96607995D01*
X141782296Y-96607710D01*
X141783953Y-96607186D01*
X141783957Y-96607185D01*
X142037245Y-96527080D01*
X142037246Y-96527080D01*
X142038908Y-96526554D01*
X142040474Y-96525802D01*
X142040479Y-96525800D01*
X142279960Y-96410803D01*
X142279966Y-96410800D01*
X142281525Y-96410051D01*
X142505306Y-96260526D01*
X142705786Y-96080961D01*
X142878965Y-95874940D01*
X143021387Y-95646572D01*
X143130212Y-95400416D01*
X143178136Y-95230491D01*
X143202798Y-95143046D01*
X143202799Y-95143042D01*
X143203267Y-95141382D01*
X143239095Y-94874638D01*
X143242855Y-94755000D01*
X143242767Y-94753760D01*
X143242767Y-94753750D01*
X143223969Y-94488254D01*
X143223969Y-94488252D01*
X143223847Y-94486533D01*
X143167200Y-94223423D01*
X143074047Y-93970919D01*
X142946244Y-93734060D01*
X142786343Y-93517571D01*
X142597534Y-93325772D01*
X142383583Y-93162490D01*
X142328118Y-93131428D01*
X142150281Y-93031834D01*
X142150278Y-93031833D01*
X142148761Y-93030983D01*
X142147138Y-93030355D01*
X141899378Y-92934504D01*
X141899373Y-92934502D01*
X141897751Y-92933875D01*
X141763412Y-92902737D01*
X141637251Y-92873494D01*
X141637247Y-92873493D01*
X141635563Y-92873103D01*
X141367428Y-92849880D01*
X141365700Y-92849975D01*
X141365696Y-92849975D01*
X141162284Y-92861170D01*
X141098696Y-92864669D01*
X141097000Y-92865006D01*
X141096995Y-92865007D01*
X140966712Y-92890922D01*
X140834728Y-92917176D01*
X140580792Y-93006352D01*
X140341955Y-93130418D01*
X140340542Y-93131428D01*
X140124391Y-93285891D01*
X140124387Y-93285894D01*
X140122981Y-93286899D01*
X140121728Y-93288095D01*
X140121726Y-93288096D01*
X140035269Y-93370572D01*
X139928240Y-93472672D01*
X139761618Y-93684032D01*
X139626439Y-93916760D01*
X139625789Y-93918366D01*
X139625787Y-93918369D01*
X139526050Y-94164608D01*
X139525400Y-94166213D01*
X139460517Y-94427414D01*
X139433085Y-94695151D01*
X136888618Y-94695151D01*
X136873969Y-94488254D01*
X136873969Y-94488252D01*
X136873847Y-94486533D01*
X136817200Y-94223423D01*
X136724047Y-93970919D01*
X136596244Y-93734060D01*
X136436343Y-93517571D01*
X136247534Y-93325772D01*
X136033583Y-93162490D01*
X135978118Y-93131428D01*
X135800281Y-93031834D01*
X135800278Y-93031833D01*
X135798761Y-93030983D01*
X135797138Y-93030355D01*
X135549378Y-92934504D01*
X135549373Y-92934502D01*
X135547751Y-92933875D01*
X135413412Y-92902737D01*
X135287251Y-92873494D01*
X135287247Y-92873493D01*
X135285563Y-92873103D01*
X135017428Y-92849880D01*
X135015700Y-92849975D01*
X135015696Y-92849975D01*
X134812284Y-92861170D01*
X134748696Y-92864669D01*
X134747000Y-92865006D01*
X134746995Y-92865007D01*
X134616712Y-92890922D01*
X134484728Y-92917176D01*
X134230792Y-93006352D01*
X133991955Y-93130418D01*
X133990542Y-93131428D01*
X133774391Y-93285891D01*
X133774387Y-93285894D01*
X133772981Y-93286899D01*
X133771728Y-93288095D01*
X133771726Y-93288096D01*
X133685269Y-93370572D01*
X133578240Y-93472672D01*
X133411618Y-93684032D01*
X133276439Y-93916760D01*
X133275789Y-93918366D01*
X133275787Y-93918369D01*
X133176050Y-94164608D01*
X133175400Y-94166213D01*
X133110517Y-94427414D01*
X133083085Y-94695151D01*
X130538618Y-94695151D01*
X130523969Y-94488254D01*
X130523969Y-94488252D01*
X130523847Y-94486533D01*
X130467200Y-94223423D01*
X130374047Y-93970919D01*
X130246244Y-93734060D01*
X130086343Y-93517571D01*
X129897534Y-93325772D01*
X129683583Y-93162490D01*
X129628118Y-93131428D01*
X129450281Y-93031834D01*
X129450278Y-93031833D01*
X129448761Y-93030983D01*
X129447138Y-93030355D01*
X129199378Y-92934504D01*
X129199373Y-92934502D01*
X129197751Y-92933875D01*
X129063412Y-92902737D01*
X128937251Y-92873494D01*
X128937247Y-92873493D01*
X128935563Y-92873103D01*
X128667428Y-92849880D01*
X128665700Y-92849975D01*
X128665696Y-92849975D01*
X128462284Y-92861170D01*
X128398696Y-92864669D01*
X128397000Y-92865006D01*
X128396995Y-92865007D01*
X128266712Y-92890922D01*
X128134728Y-92917176D01*
X127880792Y-93006352D01*
X127641955Y-93130418D01*
X127640542Y-93131428D01*
X127424391Y-93285891D01*
X127424387Y-93285894D01*
X127422981Y-93286899D01*
X127421728Y-93288095D01*
X127421726Y-93288096D01*
X127335269Y-93370572D01*
X127228240Y-93472672D01*
X127061618Y-93684032D01*
X126926439Y-93916760D01*
X126925789Y-93918366D01*
X126925787Y-93918369D01*
X126826050Y-94164608D01*
X126825400Y-94166213D01*
X126760517Y-94427414D01*
X126733085Y-94695151D01*
X112728026Y-94695151D01*
X112728026Y-92733600D01*
X112730424Y-92718459D01*
X112730774Y-92717382D01*
X112730774Y-92717380D01*
X112733172Y-92710000D01*
X112730774Y-92702619D01*
X112730774Y-92694859D01*
X112730815Y-92694859D01*
X112729987Y-92687592D01*
X112745428Y-92511097D01*
X112746912Y-92502686D01*
X112797475Y-92313978D01*
X112800396Y-92305952D01*
X112882965Y-92128884D01*
X112887236Y-92121487D01*
X112999295Y-91961450D01*
X113004785Y-91954907D01*
X113142933Y-91816759D01*
X113149476Y-91811269D01*
X113309513Y-91699210D01*
X113316910Y-91694939D01*
X113493978Y-91612370D01*
X113502002Y-91609450D01*
X113690711Y-91558886D01*
X113699123Y-91557402D01*
X113875618Y-91541961D01*
X113882885Y-91542789D01*
X113882885Y-91542748D01*
X113890645Y-91542748D01*
X113898026Y-91545146D01*
X113905406Y-91542748D01*
X113905408Y-91542748D01*
X113906485Y-91542398D01*
X113921626Y-91540000D01*
X144756400Y-91540000D01*
X144771541Y-91542398D01*
G37*
%TD.AperFunction*%
M02*
